<svg xmlns="http://www.w3.org/2000/svg" width="893" height="516" viewBox="0 0 893 516">
  <defs>
    <style>
      .cls-1 {
        fill: aqua;
      }

      .cls-1, .cls-2 {
        fill-rule: evenodd;
      }

      .cls-2 {
        fill: red;
      }
    </style>
  </defs>
  <path id="Git" class="cls-1" d="M341.174,360.948c19.228-2.218,37.716-2.958,51.767-1.479,9.614,1.479,11.093-3.7,7.4-11.832-9.614-22.186-30.32-38.455-67.3-37.716-45.111.74-101.315,19.228-159,19.967-8.874,0-11.093,4.438-7.4,11.833,11.092,23.664,34.018,39.194,70.994,35.5,17.748-1.479,41.413-5.916,65.077-10.354C257.609,456.346,171.085,511.811,130.411,474.1c-29.581-27.362-31.8-139.769,36.976-244.781,70.255-107.231,190.8-170.83,214.461-146.425,16.27,16.27-11.093,57.683-20.706,94.659s2.218,58.422,19.227,70.255c8.135,7.4,13.311,2.218,15.53-3.7,8.135-21.446,19.967-51.027,28.841-70.994,10.354-23.665,11.833-43.632,5.177-64.338C424,89.544,412.168,71.056,391.462,56.266c-25.144-18.488-58.422-17.748-99.835-4.437C208.061,79.191,58.678,219.7,60.157,378.7c0.739,60.64,22.925,93.919,49.548,113.886,40.673,31.06,87.263,25.144,123.5,14.79C270.18,497.02,360.4,430.463,341.174,360.948ZM633.285,163.5c-9.614-19.967-31.06-28.841-42.892-16.269s-15.53,34.757-3.7,54.724c11.093,19.228,31.8,21.446,41.414,11.093S642.9,182.724,633.285,163.5ZM512.743,514.029c41.413,0,88-31.06,110.189-76.91,8.874-18.488,11.093-34.018,5.177-45.85-2.959-5.917-8.135-6.656-11.833,0C594.091,442.3,553.417,491.1,520.138,492.583c-23.664,1.479-25.143-27.362-7.395-70.254,15.53-36.977,46.59-87.264,62.12-119.8,17.749-36.976,11.832-68.775.74-80.608-5.917-6.655-11.093-4.437-17.749,4.438-27.362,38.455-76.171,125.718-94.659,179.7C442.489,466.7,456.54,514.029,512.743,514.029ZM758.256,215.263c-31.8,58.422-62.859,120.542-78.389,157.518-35.5,85.045,3.7,139.769,52.506,141.248,59.161,2.219,107.97-62.859,117.583-84.3,7.4-17.009,11.093-30.321,7.4-42.153-2.958-10.353-11.093-8.874-15.53,0-27.363,55.464-69.515,107.97-102.794,106.491-31.06-1.479-39.194-47.329-14.79-101.314,28.1-62.12,70.254-133.854,99.1-183.4,18.488-2.959,41.413-5.177,57.682-2.959,11.093,0,14.051-5.176,8.875-14.05-5.917-9.614-17.009-22.926-45.851-22.186,17.749-38.455,17.749-62.859,9.614-83.566-3.7-8.874-11.093-9.614-17.748,0-12.572,16.27-33.279,51.027-56.2,91.7-19.967,2.218-40.674,3.7-61.38,2.958-11.093-.74-15.53,4.437-8.135,14.79C716.1,204.17,733.112,215.263,758.256,215.263Z"/>
  <path id="Git-2" data-name="Git" class="cls-2" d="M280.534,319.535c19.227-2.218,37.715-2.958,51.766-1.479,9.614,1.479,11.093-3.7,7.395-11.832-9.613-22.186-30.32-38.455-67.3-37.716-45.111.74-101.314,19.228-159,19.967-8.874,0-11.093,4.437-7.395,11.833C117.1,323.972,140.025,339.5,177,335.805c17.748-1.479,41.413-5.917,65.078-10.354C196.968,414.933,110.444,470.4,69.77,432.682,40.19,405.32,37.971,292.912,106.746,187.9,177,80.67,297.543,17.071,321.207,41.475c16.27,16.269-11.092,57.683-20.706,94.659s2.218,58.422,19.227,70.254c8.135,7.4,13.312,2.219,15.53-3.7,8.135-21.446,19.967-51.027,28.842-70.994,10.353-23.665,11.832-43.632,5.176-64.338-5.916-19.228-17.748-37.716-38.455-52.506C305.677-3.635,272.4-2.9,230.986,10.416,147.42,37.778-1.963,178.287-.484,337.284c0.74,60.64,22.925,93.919,49.548,113.886,40.674,31.06,87.263,25.144,123.5,14.79C209.54,455.607,299.761,389.05,280.534,319.535Zm292.11-197.452c-9.613-19.967-31.059-28.841-42.892-16.269s-15.53,34.757-3.7,54.724c11.092,19.228,31.8,21.446,41.413,11.093S582.258,141.311,572.644,122.083ZM452.1,472.616c41.413,0,88-31.06,110.188-76.91,8.874-18.488,11.093-34.018,5.177-45.851-2.958-5.916-8.135-6.655-11.833,0C533.45,400.882,492.776,449.691,459.5,451.17c-23.665,1.479-25.144-27.362-7.395-70.255,15.53-36.976,46.589-87.263,62.119-119.8,17.749-36.976,11.833-68.775.74-80.608-5.916-6.655-11.093-4.437-17.749,4.437-27.362,38.455-76.17,125.719-94.658,179.7C381.848,425.287,395.9,472.616,452.1,472.616ZM697.615,173.85c-31.8,58.422-62.859,120.541-78.389,157.517-35.5,85.045,3.7,139.77,52.506,141.249,59.162,2.218,107.97-62.859,117.584-84.3,7.395-17.009,11.093-30.321,7.395-42.153-2.958-10.353-11.093-8.874-15.53,0-27.362,55.464-69.515,107.97-102.793,106.491-31.06-1.479-39.2-47.329-14.791-101.314,28.1-62.12,70.255-133.854,99.1-183.4,18.488-2.958,41.413-5.176,57.683-2.958,11.092,0,14.05-5.176,8.874-14.051-5.916-9.613-17.009-22.925-45.85-22.185,17.748-38.455,17.748-62.86,9.613-83.566-3.7-8.874-11.093-9.614-17.748,0-12.572,16.269-33.279,51.027-56.2,91.7-19.967,2.218-40.673,3.7-61.38,2.958-11.093-.74-15.53,4.437-8.135,14.79C655.462,162.757,672.471,173.85,697.615,173.85Z"/>
</svg>
